<svg width="202" height="72" viewBox="0 0 202 72" fill="none" xmlns="http://www.w3.org/2000/svg">
<path d="M36.5141 51.2802L27.2146 41.9414L18.2891 50.9045L17.5444 50.1603L27.2146 40.4494L36.5141 49.7882L45.8137 40.4494L55.4838 50.1603L54.7391 50.9045L45.8137 41.9414L36.5141 51.2802Z" fill="#C22E0C"/>
<path d="M57.1382 29.0774L47.8389 38.416L48.5821 39.1623L57.8814 29.8238L57.1382 29.0774Z" fill="#C22E0C"/>
<path d="M37.0416 20.7198H35.9905V33.9265H37.0416V20.7198Z" fill="#C22E0C"/>
<path d="M15.8946 29.0774L15.1514 29.8238L24.4507 39.1623L25.1939 38.416L15.8946 29.0774Z" fill="#C22E0C"/>
<path d="M72.1304 32.4917H73.8193L79.1959 40.5817L84.5725 32.4917H86.2614V47.3157H84.5939V35.3076L79.2173 43.2474H79.1318L73.7551 35.3291V47.3157H72.1304V32.4917Z" fill="#C22E0C"/>
<path d="M95.8995 32.3843H97.4601L104.187 47.3157H102.395L100.667 43.3977H92.6322L90.8827 47.3157H89.176L95.9031 32.3843H95.8995ZM100.011 41.8734L96.6584 34.3344L93.2842 41.8734H100.011Z" fill="#C22E0C"/>
<path d="M105.577 39.9448V39.9019C105.577 35.7084 108.698 32.2376 113.041 32.2376C115.721 32.2376 117.32 33.1894 118.799 34.5884L117.659 35.8157C116.415 34.6314 115.022 33.7834 113.02 33.7834C109.753 33.7834 107.305 36.4526 107.305 39.8625V39.9055C107.305 43.3369 109.774 46.0276 113.02 46.0276C115.044 46.0276 116.373 45.244 117.787 43.8879L118.885 44.9685C117.345 46.5357 115.66 47.5733 112.981 47.5733C108.719 47.5733 105.577 44.2063 105.577 39.9484V39.9448Z" fill="#C22E0C"/>
<path d="M120.72 39.9448V39.9019C120.72 35.8157 123.777 32.2376 128.27 32.2376C132.763 32.2376 135.777 35.7728 135.777 39.8625V39.9055C135.777 43.9952 132.72 47.5733 128.227 47.5733C123.734 47.5733 120.72 44.0346 120.72 39.9484V39.9448ZM134.046 39.9448V39.9019C134.046 36.5349 131.598 33.7834 128.224 33.7834C124.849 33.7834 122.444 36.4956 122.444 39.8625V39.9055C122.444 43.2725 124.892 46.0276 128.266 46.0276C131.64 46.0276 134.046 43.3154 134.046 39.9484V39.9448Z" fill="#C22E0C"/>
<path d="M139.297 32.4917H140.858L150.158 44.3709V32.4917H151.782V47.3157H150.453L140.922 35.1609V47.3157H139.297V32.4917Z" fill="#C22E0C"/>
<path d="M155.955 32.4917H161.078C165.717 32.4917 168.924 35.6869 168.924 39.8625V39.9055C168.924 44.0775 165.721 47.3193 161.078 47.3193H155.955V32.4953V32.4917ZM157.622 34.0374V45.77H161.082C164.816 45.77 167.196 43.2295 167.196 39.9448V39.9019C167.196 36.6208 164.812 34.0374 161.082 34.0374H157.622Z" fill="#C22E0C"/>
<path d="M171.792 39.9448V39.9019C171.792 35.8157 174.85 32.2376 179.343 32.2376C183.836 32.2376 186.85 35.7728 186.85 39.8625V39.9055C186.85 43.9952 183.793 47.5733 179.3 47.5733C174.807 47.5733 171.792 44.0346 171.792 39.9484V39.9448ZM185.122 39.9448V39.9019C185.122 36.5349 182.674 33.7834 179.3 33.7834C175.926 33.7834 173.521 36.4956 173.521 39.8625V39.9055C173.521 43.2725 175.968 46.0276 179.343 46.0276C182.717 46.0276 185.122 43.3154 185.122 39.9484V39.9448Z" fill="#C22E0C"/>
</svg>
