<svg width="20" height="20" viewBox="0 0 20 20" fill="none" xmlns="http://www.w3.org/2000/svg">
<path d="M15.5857 11.5787L12.5857 10.0787C12.4676 10.0199 12.3361 9.99325 12.2044 10.0015C12.0727 10.0097 11.9455 10.0525 11.8357 10.1256L10.4585 11.0444C9.82629 10.6968 9.30603 10.1766 8.95849 9.54437L9.87724 8.16719C9.95033 8.05734 9.99315 7.93016 10.0014 7.79848C10.0096 7.6668 9.98296 7.53528 9.92412 7.41719L8.42412 4.41719C8.36194 4.29163 8.26584 4.186 8.14671 4.11226C8.02757 4.03853 7.89016 3.99964 7.75005 4C6.75549 4 5.80166 4.39509 5.0984 5.09835C4.39514 5.80161 4.00005 6.75544 4.00005 7.75C4.00253 9.93727 4.87252 12.0343 6.41916 13.5809C7.9658 15.1275 10.0628 15.9975 12.2501 16C12.7425 16 13.2301 15.903 13.6851 15.7145C14.1401 15.5261 14.5535 15.2499 14.9017 14.9017C15.2499 14.5534 15.5261 14.14 15.7146 13.6851C15.9031 13.2301 16.0001 12.7425 16.0001 12.25C16.0002 12.1107 15.9614 11.9741 15.8882 11.8555C15.8151 11.7369 15.7103 11.6411 15.5857 11.5787ZM12.2501 14.5C10.4605 14.498 8.74471 13.7862 7.47927 12.5208C6.21383 11.2553 5.50204 9.5396 5.50005 7.75C5.49991 7.2298 5.68002 6.72562 6.00974 6.32326C6.33945 5.9209 6.79841 5.64521 7.30849 5.54313L8.38474 7.69938L7.4688 9.0625C7.40036 9.16517 7.3583 9.28314 7.34636 9.40596C7.33443 9.52877 7.35297 9.65263 7.40036 9.76656C7.93698 11.0419 8.95157 12.0565 10.2269 12.5931C10.3412 12.6426 10.466 12.6629 10.5901 12.6521C10.7141 12.6413 10.8336 12.5998 10.9376 12.5312L12.3072 11.6181L14.4635 12.6944C14.3606 13.205 14.0837 13.6642 13.6801 13.9935C13.2764 14.3228 12.771 14.5018 12.2501 14.5ZM10.0001 0.25C8.31674 0.249633 6.66201 0.685083 5.19691 1.51396C3.73182 2.34285 2.50628 3.53692 1.63959 4.97997C0.772894 6.42301 0.294567 8.06587 0.251167 9.74862C0.207766 11.4314 0.600771 13.0967 1.39193 14.5825L0.327865 17.7747C0.239726 18.039 0.226935 18.3226 0.290926 18.5938C0.354917 18.8649 0.493161 19.1129 0.690164 19.3099C0.887166 19.5069 1.13514 19.6451 1.4063 19.7091C1.67745 19.7731 1.96107 19.7603 2.22537 19.6722L5.41755 18.6081C6.72515 19.3036 8.174 19.6921 9.65414 19.744C11.1343 19.7959 12.6068 19.51 13.9599 18.9079C15.3131 18.3057 16.5112 17.4033 17.4635 16.269C18.4158 15.1346 19.0971 13.7983 19.4558 12.3613C19.8145 10.9244 19.8411 9.42456 19.5336 7.97578C19.2261 6.52701 18.5926 5.16732 17.6812 3.99992C16.7698 2.83253 15.6044 1.88811 14.2735 1.23836C12.9426 0.588614 11.4811 0.250608 10.0001 0.25ZM10.0001 18.25C8.54972 18.251 7.12483 17.8691 5.86943 17.1428C5.77751 17.0895 5.67532 17.0563 5.56962 17.0455C5.46391 17.0347 5.35712 17.0464 5.2563 17.08L1.75005 18.25L2.91912 14.7438C2.95281 14.643 2.96473 14.5362 2.95406 14.4305C2.94339 14.3248 2.91039 14.2226 2.85724 14.1306C1.94784 12.5584 1.58272 10.7299 1.81852 8.92896C2.05432 7.12801 2.87786 5.4552 4.16139 4.17006C5.44491 2.88491 7.11667 2.05925 8.91733 1.82118C10.718 1.5831 12.5469 1.94591 14.1203 2.85333C15.6937 3.76074 16.9237 5.16204 17.6194 6.83983C18.3152 8.51762 18.4378 10.3781 17.9683 12.1327C17.4987 13.8873 16.4633 15.4379 15.0226 16.5439C13.5818 17.65 11.8164 18.2497 10.0001 18.25Z" fill="#FFE5E5"/>
</svg>
